# xmcd
#
# Track frame offsets: 
#        150
#        19285
#        36910
#        63900
#        83247
#        89127
#        101450
#        111242
#        131522
#        142990
#        161047
#        179395
#        190800
#
# Disc length: 3318 seconds
#
# Revision: 0
# Processed by: cddbd v1.5.2PL0 Copyright (c) Steve Scherf et al.
# Submitted via: ExactAudioCopy v0.95a4
#
DISCID=b20cf40d
DTITLE=Shuggie Otis - Inspiration Information
DYEAR=1974
DGENRE=Blues
TTITLE0=Inspiration Information
TTITLE1=Island Letter
TTITLE2=Sparkle City
TTITLE3=Aht Uh Mi Hed
TTITLE4=Happy House
TTITLE5=Rainy Day
TTITLE6=XL-30
TTITLE7=Pling!
TTITLE8=Not Available
TTITLE9=Strawberry Letters 23
TTITLE10=Sweet Thang
TTITLE11=Ice Cold Daydream
TTITLE12=Freedom Flight
EXTD=
EXTT0=
EXTT1=
EXTT2=
EXTT3=
EXTT4=
EXTT5=
EXTT6=
EXTT7=
EXTT8=
EXTT9=
EXTT10=
EXTT11=
EXTT12=
PLAYORDER=
